<?xml version="1.0" encoding="UTF-8"?>
<svg width="752pt" height="752pt" version="1.1" viewBox="0 0 752 752" xmlns="http://www.w3.org/2000/svg">
 <defs>
  <clipPath id="a">
   <path d="m139.21 151h473.58v451h-473.58z"/>
  </clipPath>
 </defs>
 <g clip-path="url(#a)">
  <path d="m614.98 177.82c0-14.57-11.656-26.23-26.23-26.23l-424.76 0.003906c-14.57 0-26.957 11.656-26.957 26.23v338.79h298.72v10.199c-11.656 7.2852-18.215 20.402-18.215 33.516 0 16.027 9.4727 30.602 24.043 37.156l8.0156 3.6445v-24.773l8.7422-7.2852 8.7422 7.2852v24.773l8.0156-3.6445c13.844-6.5586 23.316-21.129 23.316-36.43 0-13.844-7.2852-26.23-18.215-33.516v-10.199h42.258v57.559c0 6.5586 2.9141 13.113 7.2852 18.215 5.1016 5.1016 10.93 7.2852 18.215 7.2852h5.1016c13.844 0 25.5-11.656 25.5-25.5v-57.559h36.43zm-450.99-16.027h424.04c8.7422 0 15.301 7.2852 15.301 15.301v29.871h-454.64v-29.145c0-8.7422 6.5547-16.027 15.301-16.027zm323.49 398.54c0 8.0156-3.6445 16.027-8.7422 21.129v-10.93l-19.672-16.758-19.672 16.758v11.656c-5.8281-5.8281-10.199-13.113-10.199-21.859 0-10.93 5.8281-20.402 15.301-25.5l2.9141-1.457-0.003906-143.53-2.9141-1.457c-9.4727-5.1016-15.301-15.301-15.301-25.5 0-8.7422 3.6445-16.758 10.199-21.859v11.656l19.672 16.758 19.672-16.758v-10.93c5.8281 5.1016 8.7422 13.113 8.7422 21.129 0 10.93-5.8281 20.402-15.301 25.5l-2.9141 1.457v142.8l2.9141 1.457c9.4727 5.832 15.305 16.031 15.305 26.23zm79.414 13.844c0 8.0156-6.5586 14.57-14.57 14.57h-5.1016c-3.6445 0-7.2852-1.457-10.199-4.3711-2.9141-2.9141-4.3711-6.5586-4.3711-10.199v-94.715h33.516zm10.93-68.484v-26.23h5.1016v-10.93h-27.688v-91.074l13.844-9.4727-5.1016-44.445h-29.145l-5.1016 44.445 13.844 9.4727v90.344l-10.926 0.003907h-15.301v10.93h5.1016v26.23h-42.258v-109.29c11.656-7.2852 18.215-20.402 18.215-33.516 0-15.301-8.7422-29.871-23.316-36.43l-8.0156-2.9141v24.773l-8.7422 7.2852-8.7422-7.2852v-24.773l-8.0156 3.6445c-14.57 6.5586-24.043 21.129-24.043 37.156 0 13.844 7.2852 26.23 18.215 33.516v109.29l-287.06-0.003906v-288.52h455.37v287.06h-26.23zm-27.688-137.7-8.0156-5.1016 2.9141-28.414h9.4727l2.9141 28.414z"/>
 </g>
 <path d="m526.09 179.28h10.93v10.93h-10.93z"/>
 <path d="m498.4 179.28h10.93v10.93h-10.93z"/>
 <path d="m553.78 179.28h10.93v10.93h-10.93z"/>
 <path d="m183.66 179.28h280.5v10.93h-280.5z"/>
 <path d="m359.24 252.14h-41.531v15.301h-145.72v10.93h145.72v15.301h41.531v-15.301h21.129v-10.93h-21.129zm-10.926 29.875h-19.672v-18.945h19.672z"/>
 <path d="m255.79 311.16h-41.531v15.301h-42.258v10.93h41.531v15.301h42.258v-15.301h125.32v-10.93h-125.32zm-10.93 30.602h-19.672v-19.672h19.672z"/>
 <path d="m327.91 370.9h-41.531v15.301h-114.39v10.93h114.39v15.301h41.531v-15.301h53.188v-10.93h-53.188zm-10.93 30.598h-19.672v-19.672h19.672z"/>
 <path d="m300.23 429.92h-41.531l0.003907 15.301h-86.703v10.93h85.973v15.301h41.531v-15.301h80.875l-0.003906-10.93h-80.145zm-10.926 30.598h-19.672v-19.672h19.672z"/>
</svg>
